# xmcd
#
# Track frame offsets:
#	150
#	12875
#	22667
#	35260
#	46280
#	71545
#	83245
#	99667
#	114587
#	126090
#
# Disc length: 1887
#
# Revision: 1
# Processed by: cddbd v1.5.1PL0 Copyright (c) Steve Scherf et al.
# Submitted via: ExactAudioCopy v0.90b4
# Normalized: r0:DSETVAR1,TDELIM( - )
#
DISCID=72075d0a
DTITLE=Various Artist - Inspirational Country
DYEAR=1900
DGENRE=Christian Rock
TTITLE0=Patsy Cline - Just A Closer Walk with Thee
TTITLE1=The Chuck Wagon Gang - He Walks With Me
TTITLE2=Jonny Cash &The Carter Family - (There'll Be) Peace In The Valley (For Me)
TTITLE3=Barbara Mandrell - Satisfied
TTITLE4=Willie Nelson - Whispering Hope
TTITLE5=The Oak Ridge Boys - Where the Soul Never Dies
TTITLE6=Tammy Wynette - How Great Thou Art
TTITLE7=George Jones - Amazing Grace
TTITLE8=The Statler Brothers - Daddy Sang Bass
TTITLE9=Kris Kristofferson - Why Me Lord
EXTD=
EXTT0=(Traditional-Arr: Stevenson)
EXTT1=(R. Carter)
EXTT2=(T.A. Dorsey)
EXTT3=(M. Carson)
EXTT4=(Arr: Willie Nelson)
EXTT5=(W.M. Golden)
EXTT6=(S.K. Hine)
EXTT7=(arr: B. Sherrill)
EXTT8=(C. Perkins)
EXTT9=(Kris Kristofferson)
PLAYORDER=
